<?xml version="1.0" encoding="UTF-8"?>
<svg id="_图层_1" xmlns="http://www.w3.org/2000/svg" version="1.1" viewBox="0 0 200 200">
  <!-- Generator: Adobe Illustrator 29.3.1, SVG Export Plug-In . SVG Version: 2.1.0 Build 151)  -->
  <defs>
    <style>
      .st0 {
        fill: #006239;
      }
    </style>
  </defs>
  <path class="st0" d="M47.1,106.4c-10.9,10.9-12.2,27.4-4.8,40.1l-1.1,1.1c-3.3,3.3-3.2,8.5,0,11.8,3.3,3.2,8.5,3.2,11.8,0l1.1-1.1c12.8,7.4,29.2,6.2,40.1-4.8,13-13,13-34.1,0-47.1s-3.2-8.5,0-11.8c3.3-3.2,8.5-3.2,11.8,0,13,13,34.1,13,47.1,0h0c10.9-10.9,12.2-27.4,4.8-40.1l1.1-1.1c3.3-3.3,3.3-8.5,0-11.8s-8.5-3.3-11.8,0h0l-1.1,1.1c-12.8-7.5-29.2-6.2-40.1,4.8s-10.7,19.3-9.4,28.3c-4.6.5-10.1,3-14.2,7.1s-6.5,9.4-7,14.2c-10.4-1.5-20.9,2-28.4,9.3h0ZM55.9,115.2c1.6-1.6,4.3-1.6,5.9,0,1.6,1.6,1.6,4.3,0,5.9-4.9,4.9-4.9,12.8,0,17.7h0c1.6,1.6,1.6,4.3,0,5.9s-4.3,1.6-5.9,0c-8.1-8.1-8.1-21.3,0-29.5ZM114.8,56.3c1.6-1.6,4.3-1.6,5.9,0s1.6,4.3,0,5.9c-4.9,4.9-4.9,12.8,0,17.7h0c1.6,1.6,1.6,4.3,0,5.9s-4.3,1.6-5.9,0c-8.1-8.1-8.1-21.3,0-29.5h0Z"/>
</svg>